<?xml version="1.0" encoding="utf-8"?>
<!-- Generator: Adobe Illustrator 27.6.1, SVG Export Plug-In . SVG Version: 6.00 Build 0)  -->
<svg version="1.1" id="Layer_1" xmlns="http://www.w3.org/2000/svg" xmlns:xlink="http://www.w3.org/1999/xlink" x="0px" y="0px"
	 viewBox="0 0 476.3 649" style="enable-background:new 0 0 476.3 649;" xml:space="preserve">
<style type="text/css">
	.st0{fill:#C8271F;}
	.st1{fill:#F29021;}
	.st2{fill:#F9C033;}
</style>
<g>
	<path d="M461.1,300.9c-13.2-40.8-34.5-79.8-63.2-116l-19.3-24.3l-12.1,28.6c-7.1,16.9-12.7,27.6-16.8,34.3
		c-7.5-19.6-22-54.7-46.7-92C267.2,77.3,223,38.1,171.7,15L138.2,0l8,35.8c1.3,6,2.6,11.7,3.8,17.1c16.6,73.2,19.6,86.5-14.4,155.1
		c-7.9,15.3-20.5,30.6-29.6,39.5c-3.7-13-9.2-29.7-24.3-38.3l-20.1-11.4L55,220c-3.4,11.4-9.1,24.4-15.8,39.5
		C20,303.5-6.4,363.8,1.4,441.7c4.2,41.9,21.8,82.7,50.9,118c27.5,33.4,64.2,59.9,103.3,74.5c13.3,5,26.9,8.7,40.5,10.8
		c6.3,1,12.6,1.7,18.8,2.1c3.3,0.5,12.1,1.7,24.9,1.7c10.4,0,21.1-0.8,31.7-2.4c13-1.9,25.9-5,38.4-9.2
		c24.2-8.1,47.1-20.2,68.1-36.1c82.5-62.4,93.3-125.1,97.7-189.1C478.2,376,473.3,338.5,461.1,300.9z"/>
	<g>
		<path class="st0" d="M457.4,411.3c-4.4,64.5-15.4,119-90.4,175.7c-21.5,16.3-43.1,26.7-62.8,33.3c-12.7,4.2-24.6,6.9-35.3,8.4
			c-30.8,4.6-51.8,0.5-51.8,0.5c-6-0.4-12-1-18-2c-12.5-2-24.9-5.4-37-9.9c-73-27.4-134.4-97.6-142.4-177.1
			c-9.9-99,38.6-166.8,52.9-214.6c17.6,10,15.4,46.7,26.5,47.8c11,1.1,39.7-31.1,52.9-56.7c39.7-80.1,32-95.6,12.1-184.6
			c121.3,54.5,165.4,191.3,173.4,211.3c8,20,24,5.6,46-46.7C440.8,269,461.8,346.8,457.4,411.3z"/>
		<path class="st1" d="M304.2,620.2c-12.7,4.2-24.6,6.9-35.3,8.4c-30.8,4.6-51.8,0.5-51.8,0.5c-6-0.4-12-1-18-2
			c-12.5-2-24.9-5.4-37-9.9c-20.6-11.9-36.8-27.3-46.4-41.5c-26.5-38.9-48.5-107.9-8.8-170.1c39.7-62.3,71.7-71.2,116.8-145.7
			c0,0,62.8,58.9,69.5,143.4c26.5-15.6,44.1-58.9,44.1-58.9s46.3,50,52.9,107.9C396.6,508.6,378,580.5,304.2,620.2z"/>
		<path class="st2" d="M283.2,618.1c-5,4.1-9.7,7.6-14.3,10.6c-30.8,4.6-51.8,0.5-51.8,0.5c-6-0.4-12-1-18-2
			c-8-6.1-16.2-14.4-25-24.7c-38.6-45.6-3.3-92.3,22-124.5c25.4-32.2,35.3-73.4,35.3-73.4c18.7,17.8,27.6,52.3,33.1,78.9
			c5.5,26.7,27.6,38.9,43,26.7C330.6,551.4,325.1,583.6,283.2,618.1z"/>
	</g>
</g>
</svg>
