<?xml version="1.0" encoding="utf-8"?>
<!-- Generator: Adobe Illustrator 27.6.1, SVG Export Plug-In . SVG Version: 6.00 Build 0)  -->
<svg version="1.1" id="Layer_1" xmlns="http://www.w3.org/2000/svg" xmlns:xlink="http://www.w3.org/1999/xlink" x="0px" y="0px"
	 viewBox="0 0 664.5 664.5" style="enable-background:new 0 0 664.5 664.5;" xml:space="preserve">
<style type="text/css">
	.st0{fill:#FFFFFF;}
	.st1{fill:#FF0100;}
	.st2{fill:#FEA000;}
	.st3{fill:#FDFF00;}
	.st4{fill:#F50C00;}
</style>
<g>
	<g>
		<path class="st0" d="M332.3,656c-86.5,0-167.8-33.7-228.9-94.8S8.5,418.7,8.5,332.3c0-86.5,33.7-167.8,94.8-228.9
			C164.5,42.2,245.8,8.5,332.3,8.5S500,42.2,561.2,103.3c61.1,61.1,94.8,142.5,94.8,228.9c0,86.5-33.7,167.8-94.8,228.9
			S418.7,656,332.3,656z"/>
		<g>
			<path class="st1" d="M332.3,17c174.1,0,315.3,141.1,315.3,315.3S506.4,647.5,332.3,647.5S17,506.4,17,332.3S158.1,17,332.3,17
				 M332.3,0c-44.8,0-88.4,8.8-129.3,26.1c-39.6,16.7-75.1,40.7-105.6,71.2s-54.5,66-71.2,105.6C8.8,243.9,0,287.4,0,332.3
				s8.8,88.4,26.1,129.3c16.7,39.6,40.7,75.1,71.2,105.6c30.5,30.5,66,54.5,105.6,71.2c41,17.3,84.5,26.1,129.3,26.1
				s88.4-8.8,129.3-26.1c39.6-16.7,75.1-40.7,105.6-71.2c30.5-30.5,54.5-66,71.2-105.6c17.3-41,26.1-84.5,26.1-129.3
				s-8.8-88.4-26.1-129.3c-16.7-39.6-40.7-75.1-71.2-105.6s-66-54.5-105.6-71.2C420.6,8.8,377.1,0,332.3,0L332.3,0z"/>
		</g>
	</g>
	<g>
		<path class="st1" d="M336.3,651.1c-14.8,0-30.1-1.5-45.5-4.5c-2.5-0.5-5.1-1-7.8-1.6l-0.2,0l-0.2,0c-6.5-1.7-12.9-3.7-19.2-6h-2.2
			l-1.1-1.2l-3.7-1.3v-0.1c-45.1-17.8-81.7-48.8-106.3-90c-20.6-34.5-32.4-76.3-32.4-114.7c0-72.7,39-118.9,40.7-120.8l10.8-12.5
			l3.9,16.1c0,0.1,4.4,17.1,16.3,28.1c5.8,5.4,16.2,15,21.1,16.9c-0.1-2.5-1-7.3-1.8-11.2c-1.6-8.2-3.9-19.5-4.3-34.1l0-0.2l0-0.2
			c1-43.7,18.5-69,47.5-110.8c4.6-6.6,9.3-13.4,14.4-20.9c36.4-53.5,40.3-97,40.3-97.5l1.2-15.1l12.2,8.9
			c83.8,61,103.6,139.6,108,180.9c2.4,22.7,0.5,36-0.6,43.9c-0.1,1.1-0.3,2.2-0.4,3.2c8.9-0.2,33.3-16,49.2-46l6.7-12.7l7.9,12
			c2,3,48.9,75.1,58.2,157.6c8.1,71.5-30.3,135.2-32,137.9l-0.2,0.4l-0.3,0.4c-22.2,29-60.3,67.2-115.5,85.2l-1,1l-2.3,0
			c-6.2,1.9-12.5,3.5-18.9,4.9C365,649.6,350.7,651.1,336.3,651.1z"/>
		<g>
			<path class="st1" d="M315,85c78.6,57.2,99.8,130.1,104.5,175c4.7,44.9-7.8,50.6,4.2,54.3c0.9,0.3,2,0.4,3.1,0.4
				c13.5,0,40.5-19.7,56.9-50.5c13,19.8,49,84.5,56.9,153.9c7.8,69.4-30.8,132.5-30.8,132.5c-18.9,24.6-56.3,64.9-113.3,82.9
				c0,0,0,0,0,0h0c-6.2,2-12.7,3.7-19.4,5c-12.7,2.6-26.3,4.1-40.8,4.1c-13.8,0-28.4-1.4-43.8-4.4c-2.5-0.5-5-1-7.5-1.6
				c-6.9-1.8-13.5-3.9-19.9-6.3c0,0,0,0,0,0c0,0,0,0,0,0h0c-101.7-37.1-138.7-132.5-138.7-198.8c0-70.4,38.6-115.3,38.6-115.3
				s4.7,19.3,18.8,32.3c11.3,10.4,21.2,19.6,28.2,19.6c1.7,0,3.3-0.6,4.6-1.8c6.8-6.3-2.6-21.4-3.6-52.7
				c1-47.5,22.1-70.8,60.3-127.1C311.5,130.2,315,85,315,85 M300.1,53.1L298,83.6c-0.1,1.4-4.4,42.6-38.9,93.4
				c-5.1,7.5-9.8,14.3-14.3,20.8c-29.9,43.2-47.9,69.2-49,115.5l0,0.5l0,0.5c0.3,9.7,1.4,18,2.5,24.9c-1.1-1.1-2.2-2.1-3.2-3
				c-9.9-9.2-13.8-23.8-13.8-23.9l-7.8-32.1L152,305.2c-1.7,2-42.7,50.5-42.7,126.4c0,18.7,2.7,38.8,7.9,58.2
				c5.8,21.5,14.4,42,25.7,60.8c12.6,21.1,28.2,39.7,46.5,55.3c17.3,14.8,37,26.9,58.7,36.1v0.3l7.6,2.8l2.3,2.3l4.1,0
				c6.1,2.1,12.3,4,18.5,5.7l0.3,0.1l0.3,0.1c2.7,0.6,5.4,1.2,8,1.7c15.9,3.1,31.7,4.7,47.1,4.7c15,0,29.9-1.5,44.2-4.5
				c6.2-1.3,12.4-2.9,18.5-4.7h4.4l2.1-2.1c56.3-18.9,95.1-57.8,117.8-87.5l0.5-0.7l0.5-0.8c1.7-2.8,41.6-69,33.2-143.3
				c-3.6-31.6-12.9-65.4-27.7-100.3c-11.2-26.4-23.8-48.9-31.8-61.1l-15.8-23.9l-13.4,25.3c-6.3,11.8-15,22.8-24.6,31
				c-2.5,2.2-4.9,3.9-6.9,5.3c0.7-8.2,0.9-19.3-0.7-34.4c-2.2-21.2-8.6-53.9-26.3-88.8c-19.3-38.1-48-71.1-85.1-98.2L300.1,53.1
				L300.1,53.1z"/>
		</g>
	</g>
	<path class="st2" d="M462.3,549c-10.8,37-33.9,68.4-65.9,84.5c0,0,0,0,0,0h0c-6.2,2-12.7,3.7-19.4,5c-24.9,5.1-53.1,5.9-84.6-0.3
		c-2.5-0.5-5-1-7.5-1.6c-6.9-1.8-13.5-3.9-19.9-6.3c0,0,0,0,0,0c0,0,0,0,0,0h0c-4.6-3-9.1-6.5-13.5-10.4
		c-32.9-29.7-62.1-84.5-51.7-132c10.4-47.5,29.2-63.1,29.2-63.1s7.8,33.4,27.7,38.1c-9.9-40.2-1.6-67.9,19.8-95
		c21.4-27.1,39.7-62.1,38.6-93.9c0,0,54.8,36.5,68.9,92.3c7.8,27.1,9.4,44.3,5.7,59c15.7,2.6,31.3-24.5,33.4-37.6
		C457.6,438.4,475.9,502.5,462.3,549z"/>
	<path class="st3" d="M414.8,590.7c-5.1,16.4-20.5,34.3-37.8,47.8c-24.9,5.1-53.1,5.9-84.6-0.3c-18.1-14.2-36.7-33.8-43-61.1
		c-9.9-42.8,19.3-77.7,19.3-77.7s4.2,20.3,16.7,26.6c-9.9-28.7,8.3-56.4,23.5-75.1c15.1-18.8,17.2-43.3,17.2-43.3
		c36.5,28.2,52.2,66.3,47,99.7c11.5-4.2,15.1-8.9,18.8-21.9C411.2,501,426.3,554.2,414.8,590.7z"/>
	<g>
		<path class="st4" d="M172.6,191.2c0,0-19.8,22.7-7.7,34.4c1.8,2.7,6.8,3.5,10.2,2.7c7.6-1.9,9.5-7.9,4.5-16.2
			C175.3,204.8,172.6,201.8,172.6,191.2z"/>
	</g>
	<g>
		<path class="st4" d="M475.6,129.3c0,0,19.8,22.7,7.7,34.4c-1.8,2.7-6.8,3.5-10.2,2.7c-7.6-1.9-9.5-7.9-4.5-16.2
			C472.9,142.8,475.6,139.9,475.6,129.3z"/>
	</g>
</g>
</svg>
